<?xml version="1.0" encoding="UTF-8"?><!DOCTYPE svg PUBLIC "-//W3C//DTD SVG 1.1//EN" "http://www.w3.org/Graphics/SVG/1.1/DTD/svg11.dtd"><svg xmlns="http://www.w3.org/2000/svg" xmlns:xlink="http://www.w3.org/1999/xlink" version="1.1" width="24" height="24" viewBox="0 0 24.00 24.00"><path d="M14 20C14 21.1046 13.1046 22 12 22C10.8954 22 10 21.1046 10 20L14 20ZM19.7379 21.5663L17.1716 19L3 19L6 16L6 10C6 9.34584 6.10469 8.71611 6.29824 8.12667L3.47443 5.30287L4.88864 3.88865L7.28676 6.28676L21.1521 20.1521L19.7379 21.5663ZM11 4.08298L11 3C11 2.44775 11.4477 2 12 2C12.5523 2 13 2.44775 13 3L13 4.08298C15.8377 4.55905 18 7.02702 18 10L18 14.1716L8.77071 4.94229C9.43581 4.51675 10.1904 4.21881 11 4.08298Z" /></svg>