<?xml version="1.0" encoding="UTF-8"?><!DOCTYPE svg PUBLIC "-//W3C//DTD SVG 1.1//EN" "http://www.w3.org/Graphics/SVG/1.1/DTD/svg11.dtd"><svg xmlns="http://www.w3.org/2000/svg" xmlns:xlink="http://www.w3.org/1999/xlink" version="1.1" width="24" height="24" viewBox="0 0 24.00 24.00"><path d="M16 17L7 17L7 10.5C7 8 9 6 11.5 6C14 6 16 8 16 10.5M18 16L18 10.5C18 7.42515 15.8644 4.85715 13 4.17915L13 3.5C13 2.67015 12.3274 2 11.5 2C10.6714 2 10 2.67015 10 3.5L10 4.17915C7.1344 4.85715 5 7.42515 5 10.5L5 16L3 18L3 19L20 19L20 18M11.5 22C12.6044 22 13.5 21.1017 13.5 20L9.5 20C9.5 21.1017 10.3954 22 11.5 22Z" /></svg>