<?xml version="1.0" encoding="UTF-8"?><!DOCTYPE svg PUBLIC "-//W3C//DTD SVG 1.1//EN" "http://www.w3.org/Graphics/SVG/1.1/DTD/svg11.dtd"><svg xmlns="http://www.w3.org/2000/svg" xmlns:xlink="http://www.w3.org/1999/xlink" version="1.1" width="24" height="24" viewBox="0 0 24.00 24.00"><path d="M12 18C8.68542 18 6 15.3121 6 12C6 11 6.25242 10.032 6.69642 9.19507L5.23742 7.73602C4.45743 8.97107 4 10.4301 4 12C4 16.4161 7.58142 20 12 20L12 23L16 19L12 15M12 4L12 1L8 5L12 9L12 6C15.3134 6 18 8.68402 18 12C18 13 17.7464 13.9641 17.3024 14.801L18.7614 16.2601C19.5414 15 20 13.566 20 12C20 7.58002 16.4174 4 12 4Z" /></svg>